<?xml version="1.0" encoding="UTF-8" standalone="no"?>
<!-- Created with Inkscape (http://www.inkscape.org/) -->

<svg
   xmlns:dc="http://purl.org/dc/elements/1.1/"
   xmlns:cc="http://creativecommons.org/ns#"
   xmlns:rdf="http://www.w3.org/1999/02/22-rdf-syntax-ns#"
   xmlns:svg="http://www.w3.org/2000/svg"
   xmlns="http://www.w3.org/2000/svg"
   xmlns:sodipodi="http://sodipodi.sourceforge.net/DTD/sodipodi-0.dtd"
   xmlns:inkscape="http://www.inkscape.org/namespaces/inkscape"
   id="svg8"
   version="1.1"
   viewBox="0 0 50 50"
   height="50mm"
   width="50mm"
   inkscape:version="0.92.4 (5da689c313, 2019-01-14)"
   sodipodi:docname="cutsymbol.svg">
  <defs
     id="defs2" />
  <sodipodi:namedview
     id="base"
     pagecolor="#ffffff"
     bordercolor="#666666"
     borderopacity="1.0"
     inkscape:pageopacity="0.0"
     inkscape:pageshadow="2"
     inkscape:zoom="0.98994949"
     inkscape:cx="236.08033"
     inkscape:cy="135.84469"
     inkscape:document-units="mm"
     inkscape:current-layer="layer1"
     showgrid="false"
     inkscape:window-width="1675"
     inkscape:window-height="962"
     inkscape:window-x="0"
     inkscape:window-y="27"
     inkscape:window-maximized="1" />
  <metadata
     id="metadata5">
    <rdf:RDF>
      <cc:Work
         rdf:about="">
        <dc:format>image/svg+xml</dc:format>
        <dc:type
           rdf:resource="http://purl.org/dc/dcmitype/StillImage" />
        <dc:title></dc:title>
      </cc:Work>
    </rdf:RDF>
  </metadata>
  <g
     inkscape:label="Layer 1"
     inkscape:groupmode="layer"
     id="layer1"
     transform="translate(0,-247)">
    <g
       id="g4602"
       transform="matrix(0.46792567,0,0,0.23477987,-20.729362,265.45879)"
       style="stroke-width:5.95882082;stroke-miterlimit:4;stroke-dasharray:none;fill:#cd8700;fill-opacity:1">
      <path
         style="fill:#cd8700;stroke:#000000;stroke-width:5.95882082;stroke-linecap:butt;stroke-linejoin:miter;stroke-miterlimit:4;stroke-dasharray:none;stroke-opacity:1;fill-opacity:1"
         d="m 49.677815,117.03787 c 0,0 29.19393,0.0311 29.19393,0.0311 0,0 -1.620175,9.08311 -1.620175,9.08311 0,0 57.22161,-0.964 57.22161,-0.964 9.40016,-10.36037 14.56464,-22.19078 8.6335,-40.280783 -5.89868,-17.206225 -16.26961,-21.389476 -26.28416,-24.546949 0,0 -29.369478,0.401055 -29.369478,0.401055 0,0 -1.279423,7.500231 -1.279423,7.500231 0,0 -19.336544,-0.16837 -19.336544,-0.16837 0,0 -2.543709,7.357772 -2.543709,7.357772 0,0 20.678505,0.03585 20.678505,0.03585 0,0 -0.863376,5.490875 -0.863376,5.490875 0,0 -21.805931,-0.141848 -21.805931,-0.141848 0,0 -4.585311,12.194883 -4.585311,12.194883 0,0 24.807359,-0.515611 24.807359,-0.515611 0,0 -1.85537,12.585015 -1.85537,12.585015 0,0 -26.785087,0.14847 -26.785087,0.14847 0,0 -4.20634,11.78915 -4.20634,11.78915"
         id="path815"
         inkscape:connector-curvature="0"
         sodipodi:nodetypes="cccccccccccccccccc" />
      <path
         id="path819"
         d="m 116.4219,65.175 c -3.21507,-4.10678 -9.60095,-5.66259 -14.78162,-3.748651 -5.372664,1.984871 -8.170382,7.211036 -5.935696,12.095841 2.465517,5.389381 9.868536,8.044866 16.200046,5.546535 6.09098,-2.403422 8.1093,-8.412161 5.03195,-13.171914"
         style="fill:#cd8700;fill-opacity:1;stroke:#000000;stroke-width:5.95882082;stroke-linecap:butt;stroke-linejoin:miter;stroke-miterlimit:4;stroke-dasharray:none;stroke-dashoffset:0;stroke-opacity:1"
         inkscape:connector-curvature="0" />
      <path
         id="path819-3"
         d="m 122.73118,97.591873 c -4.57239,-7.211365 -13.02365,-9.979184 -19.74729,-6.799483 -7.052232,3.335101 -10.828925,12.52904 -7.868344,21.517 3.385789,10.27884 13.799394,15.6415 22.535734,10.90662 8.27711,-4.48597 10.43737,-15.68853 5.82957,-24.33646"
         style="fill:#cd8700;fill-opacity:1;stroke:#000000;stroke-width:5.95882082;stroke-linecap:butt;stroke-linejoin:miter;stroke-miterlimit:4;stroke-dasharray:none;stroke-dashoffset:0;stroke-opacity:1"
         inkscape:connector-curvature="0" />
      <path
         style="fill:#cd8700;stroke:#000000;stroke-width:5.95882082;stroke-linecap:butt;stroke-linejoin:miter;stroke-miterlimit:4;stroke-dasharray:none;stroke-opacity:1;fill-opacity:1"
         d="m 143.1065,84.755006 c 0,0 -82.939338,1.045111 -82.939338,1.045111"
         id="path836"
         inkscape:connector-curvature="0"
         sodipodi:nodetypes="cc" />
    </g>
    <path
       style="fill:#cd8700;stroke:#000000;stroke-width:3;stroke-linecap:butt;stroke-linejoin:miter;stroke-miterlimit:4;stroke-dasharray:none;stroke-opacity:1;fill-opacity:1"
       d="m 33.484839,270.99446 0.02452,9.88196 2.395859,-0.0342 0.347439,-9.96812 3.749407,-0.17386 2.703798,-4.44234 -0.01278,-17.49966 -15.801115,-0.0342 0.0512,16.69868 3.121638,5.43809 z"
       id="path4621"
       inkscape:connector-curvature="0"
       sodipodi:nodetypes="ccccccccccc" />
    <path
       style="fill:none;stroke:#000000;stroke-width:1;stroke-linecap:butt;stroke-linejoin:miter;stroke-miterlimit:4;stroke-dasharray:none;stroke-opacity:1"
       d="m 35.830594,280.63065 11.711768,-5.159"
       id="path4623-5"
       inkscape:connector-curvature="0"
       sodipodi:nodetypes="cc" />
    <path
       style="fill:none;stroke:#000000;stroke-width:1;stroke-linecap:butt;stroke-linejoin:miter;stroke-miterlimit:4;stroke-dasharray:none;stroke-opacity:1"
       d="m 35.830594,280.63065 6.64722,-9.82854"
       id="path4623-56"
       inkscape:connector-curvature="0"
       sodipodi:nodetypes="cc" />
    <path
       style="fill:none;stroke:#000000;stroke-width:1;stroke-linecap:butt;stroke-linejoin:miter;stroke-miterlimit:4;stroke-dasharray:none;stroke-opacity:1"
       d="m 33.762307,280.61814 -11.711767,-5.159"
       id="path4623-5-9"
       inkscape:connector-curvature="0"
       sodipodi:nodetypes="cc" />
    <path
       style="fill:none;stroke:#000000;stroke-width:1;stroke-linecap:butt;stroke-linejoin:miter;stroke-miterlimit:4;stroke-dasharray:none;stroke-opacity:1"
       d="M 33.762307,280.61814 27.11509,270.78961"
       id="path4623-56-2"
       inkscape:connector-curvature="0"
       sodipodi:nodetypes="cc" />
  </g>
</svg>
