/* XPM */
static char * drill_xpm[] = {
"25 20 44 1",
" 	c None",
".	c #000000",
"+	c #716100",
"@	c #AB9400",
"#	c #B49D00",
"$	c #C3A900",
"%	c #AE9700",
"&	c #816F00",
"*	c #AD9600",
"=	c #D7BB00",
"-	c #BEA500",
";	c #706000",
">	c #C2A900",
",	c #5D5000",
"'	c #675900",
")	c #B59D00",
"!	c #CBB100",
"~	c #423800",
"{	c #A58F00",
"]	c #D3B800",
"^	c #A18C00",
"/	c #2E2700",
"(	c #272828",
"_	c #B9BDBE",
":	c #BCC0C1",
"<	c #AAADAE",
"[	c #707273",
"}	c #868989",
"|	c #989B9C",
"1	c #444546",
"2	c #B5B9BA",
"3	c #A7ABAC",
"4	c #606263",
"5	c #7F8283",
"6	c #8C8F90",
"7	c #3A3C3C",
"8	c #AFB3B4",
"9	c #B2B6B6",
"0	c #474949",
"a	c #393A3A",
"b	c #AAAEAF",
"c	c #A5A8A9",
"d	c #999C9D",
"e	c #393A3B",
" ...........             ",
".+@#$$$$$%@&..           ",
".*==========-;.          ",
".>============, ....     ",
".$============'    .     ",
".$============'    ......",
".$============'   ..     ",
".)===========!~ ...      ",
".{=========]^/.          ",
" ............            ",
"   ......                ",
"   (_::<. ..             ",
"  .[:::}....             ",
"  .|:::1 ..              ",
"  .2::3....              ",
" .4:::5.                 ",
" .6:::7                  ",
" .8::90.                 ",
" abbbcde                 ",
"........                 "};
