/* XPM */
static char * registration_xpm[] = {
"25 25 20 1",
" 	c None",
".	c #170017",
"+	c #3A003A",
"@	c #7F007F",
"#	c #700070",
"$	c #720072",
"%	c #7C007C",
"&	c #7B007B",
"*	c #000000",
"=	c #100010",
"-	c #0A000A",
";	c #710071",
">	c #7E007E",
",	c #790079",
"'	c #740074",
")	c #7D007D",
"!	c #230023",
"~	c #520052",
"{	c #6F006F",
"]	c #180018",
"           .+.           ",
"           +@+           ",
"           +@+           ",
"           +@+           ",
"           .+.           ",
"           #$#           ",
"           %@%           ",
"           &@&           ",
"            @            ",
"            @            ",
"            &            ",
"***=-;&           >,.+++.",
"+@@@+'@@@@)   %@@@@@+@@@+",
"!~~~!'>>         ))@.+++.",
"            &            ",
"            @            ",
"            @            ",
"            @&           ",
"           %@%           ",
"           #${           ",
"           ]+.           ",
"           +@+           ",
"           +@+           ",
"           +@+           ",
"           .+.           "};
