/* XPM */
static char * tool_xpm[] = {
"16 16 45 1",
" 	c None",
".	c #FFFFFF",
"+	c #FFFFFD",
"@	c #E2E2E0",
"#	c #E6E6E6",
"$	c #FDFDFD",
"%	c #FEFEFE",
"&	c #B7B4B3",
"*	c #D3D3D1",
"=	c #FCFCFC",
"-	c #B6B2B1",
";	c #D3D1CF",
">	c #B1AFAD",
",	c #D0D0CE",
"'	c #FDFDFC",
")	c #FEFEFD",
"!	c #AEAFAD",
"~	c #D3D3D3",
"{	c #AEADAC",
"]	c #CDCCCB",
"^	c #817F80",
"/	c #ADADAE",
"(	c #FDFCFB",
"_	c #FBFBFB",
":	c #6B6B70",
"<	c #B3B6BC",
"[	c #FCFCFB",
"}	c #8F8F93",
"|	c #B9BCC3",
"1	c #FAFAF9",
"2	c #A6A5AA",
"3	c #ABAEB3",
"4	c #8A8A8E",
"5	c #AEB0B6",
"6	c #FFFFFE",
"7	c #868386",
"8	c #A8A8AC",
"9	c #88858A",
"0	c #A6A7AD",
"a	c #FAFAFA",
"b	c #AAA8A9",
"c	c #A4A3A8",
"d	c #B3B3B5",
"e	c #9D9B9C",
"f	c #FEFDFC",
" .....+@#$..... ",
".....%$&*=..... ",
"......%-;$..... ",
"......%>,'..... ",
"......)!~$..... ",
"......${]'..... ",
"......=^/(..... ",
"......_:<[..... ",
"......_}|1..... ",
".......23%..... ",
".......45...... ",
"......678...... ",
".......90...... ",
"......abc=..... ",
"......_def..... ",
"                "};
